<?xml version="1.0" encoding="UTF-8"?>
<!DOCTYPE svg PUBLIC "-//W3C//DTD SVG 1.1//EN" "http://www.w3.org/Graphics/SVG/1.1/DTD/svg11.dtd">
<!-- Creator: CorelDRAW -->
<svg xmlns="http://www.w3.org/2000/svg" xml:space="preserve" width="87.6847mm" height="71.9122mm" version="1.1" style="shape-rendering:geometricPrecision; text-rendering:geometricPrecision; image-rendering:optimizeQuality; fill-rule:evenodd; clip-rule:evenodd"
viewBox="0 0 37386 30661"
 xmlns:xlink="http://www.w3.org/1999/xlink"
 xmlns:xodm="http://www.corel.com/coreldraw/odm/2003">
 <defs>
  <style type="text/css">
   <![CDATA[
    .fil0 {fill:#370E0C;fill-rule:nonzero}
   ]]>
  </style>
 </defs>
 <g id="Слой_x0020_1">
  <metadata id="CorelCorpID_0Corel-Layer"/>
  <path class="fil0" d="M8315 19090l-2253 -3751 -360 360 0 0 -6 6 0 0 -7 6 0 0 -7 6 0 0 -7 6 0 0 -7 6 0 0 -7 6 0 0 -7 6 0 0 -7 6 0 0 -7 6 0 0 -7 6 0 0 -7 5 0 0 -7 5 0 0 -7 5 0 0 -7 5 0 0 -7 5 0 0 -7 5 0 0 -7 5 0 0 -7 5 0 0 -7 5 0 0 -8 4 0 0 -8 4 0 0 -8 4 0 0 -8 4 0 0 -8 4 0 0 -8 4 0 0 -8 4 0 0 -8 4 0 0 -8 4 0 0 -8 4 0 0 -8 3 0 0 -8 3 0 0 -8 3 0 0 -8 3 0 0 -8 3 0 0 -8 3 0 0 -8 3 0 0 -8 3 0 0 -8 3 0 0 -8 3 0 0 -8 2 0 0 -8 2 0 0 -8 2 0 0 -8 2 0 0 -8 2 0 0 -8 2 0 0 -8 2 0 0 -8 2 0 0 -8 2 0 0 -8 2 0 0 -8 1 0 0 -8 1 0 0 -8 1 0 0 -8 1 0 0 -8 1 0 0 -8 1 0 0 -8 1 0 0 -8 1 0 0 -8 1 0 0 -8 1 0 0 -8 0 0 0 -8 0 0 0 -8 0 0 0 -8 0 0 0 -8 0 0 0c-181,0 -362,-69 -500,-207l-1000 -1001c-138,138 -318,206 -499,206 -181,0 -362,-69 -500,-207l-2498 -2497c-133,-133 -207,-312 -207,-500 0,-187 74,-367 207,-500l10993 -10993c133,-133 312,-207 500,-207 188,0 367,74 500,207l2497 2498c276,276 276,723 0,999l0 0 981 981c6,6 12,12 18,18 130,130 198,297 206,466 0,5 0,11 1,16l0 1 0 16 0 1c0,5 0,11 0,16l0 1c0,5 0,11 -1,16 -8,170 -77,337 -206,466 -6,6 -11,11 -17,17l-321 321 3214 1786 84 -84c53,-61 117,-113 191,-154 17,-9 34,-18 51,-26l3094 -1548 -306 -306c-138,-138 -207,-319 -207,-500l0 -17 0 0c0,-6 0,-11 1,-17l0 0 1 -17 0 0 1 -17 0 0c1,-6 1,-11 2,-17l0 0c1,-6 1,-11 2,-17l0 0c1,-6 2,-11 3,-17l0 0 3 -17 0 0c1,-6 2,-11 3,-17l0 0c1,-6 2,-11 4,-17l0 0 4 -16 0 0 5 -16 0 0c2,-5 3,-11 5,-16l0 0c2,-5 4,-11 5,-16l0 0 6 -16 0 0c2,-5 4,-11 6,-16l0 0c2,-5 4,-11 7,-16l0 0c2,-5 5,-11 7,-16l0 0 7 -16 0 0c3,-5 5,-10 8,-15l0 0c3,-5 5,-10 8,-15l0 0 9 -15 0 0 9 -15 0 0c3,-5 6,-10 9,-15l0 0c3,-5 7,-10 10,-15l0 0 10 -14 0 0c3,-5 7,-10 11,-14l0 0 11 -14 0 0c4,-5 8,-9 12,-14l0 0c4,-5 8,-9 12,-14l0 0c4,-4 8,-9 12,-13l0 0c4,-4 8,-9 13,-13l0 0 1004 -1004c-276,-276 -276,-722 1,-999l2497 -2498c265,-265 734,-265 999,0l10993 10991c133,133 207,312 207,500 0,188 -74,367 -207,500l-2499 2497c-138,138 -318,207 -500,207 -180,0 -361,-69 -498,-206l-1004 1004 -1 1 0 0 -6 6 0 0 -7 6 0 0 -7 6 0 0 -7 6 0 0 -7 6 0 0 -7 6 0 0 -7 6 0 0 -7 6 0 0 -7 6 0 0 -7 6 0 0 -7 5 0 0 -7 5 0 0 -7 5 0 0 -7 5 0 0 -7 5 0 0 -7 5 0 0 -7 5 0 0 -7 5 0 0 -7 5 0 0 -8 4 0 0 -8 4 0 0 -8 4 0 0 -8 4 0 0 -8 4 0 0 -8 4 0 0 -8 4 0 0 -8 4 0 0 -8 4 0 0 -8 4 0 0 -8 3 0 0 -8 3 0 0 -8 3 0 0 -8 3 0 0 -8 3 0 0 -8 3 0 0 -8 3 0 0 -8 3 0 0 -8 3 0 0 -8 3 0 0 -8 2 0 0 -8 2 0 0 -8 2 0 0 -8 2 0 0 -8 2 0 0 -8 2 0 0 -8 2 0 0 -8 2 0 0 -8 2 0 0 -8 2 0 0 -8 1 0 0 -8 1 0 0 -8 1 0 0 -8 1 0 0 -8 1 0 0 -8 1 0 0 -8 1 0 0 -8 1 0 0 -8 1 0 0 -8 1 0 0 -8 0 0 0 -8 0 0 0 -8 0 0 0 -8 0 0 0 -8 0 0 0c-181,0 -362,-69 -500,-207l-337 -337 -1780 3203 376 376c17,17 33,34 48,53 914,967 897,2498 -50,3446 -467,468 -1088,725 -1750,725 -9,0 -16,0 -26,0 7,642 -235,1285 -723,1775 -483,482 -1116,722 -1750,722 -8,0 -17,0 -26,0 7,641 -234,1285 -722,1775 -468,468 -1089,725 -1750,725 0,-1 -17,0 -26,0 6,642 -235,1285 -724,1774 -483,482 -1117,723 -1750,723l0 0c-530,0 -1059,-169 -1499,-505 -429,327 -949,504 -1497,504l0 0c-1,0 -1,0 0,0 -661,0 -1281,-256 -1748,-724 -488,-489 -729,-1133 -722,-1775l-28 0c-661,0 -1281,-257 -1748,-724 -489,-489 -730,-1133 -723,-1775l-26 0 0 0c-660,0 -1281,-257 -1748,-725 -467,-465 -724,-1086 -725,-1747l0 -27 -26 0c-661,0 -1282,-257 -1749,-724 -467,-467 -725,-1088 -725,-1749 0,-594 209,-1155 590,-1602zm15374 -14385l-504 504 484 484c10,10 20,19 30,30l8480 8480 505 -505 -8994 -8994zm500 -1498l9992 9992 1500 -1497 -9994 -9993 -1498 1499zm-20988 9987c20,-20 40,-38 62,-55l9873 -9872c18,-23 37,-45 58,-66l0 0 -1494 -1495 -9994 9994 1495 1494zm1501 504l501 501 8994 -8996 -500 -500 -8995 8994zm24194 6204l-645 -645c-48,-36 -89,-78 -125,-124l-6407 -6407c-9,-8 -18,-17 -27,-25 -133,-134 -310,-208 -499,-208 -189,0 -366,73 -500,207l-1 1 -3247 3248c-6,6 -11,11 -17,17 -479,470 -1106,705 -1731,705l0 0c-633,0 -1266,-241 -1749,-722 -964,-964 -964,-2533 0,-3497 42,-42 87,-77 135,-106 30,-53 68,-102 113,-147l3336 -3333 -3213 -1785 -7226 7228 2282 3801c948,-581 2268,-470 3072,335 467,467 725,1088 724,1749 0,16 0,32 -1,49 650,-7 1302,227 1775,701 467,467 724,1088 724,1749 0,17 0,33 -1,49 649,-6 1301,227 1774,700 467,467 725,1088 725,1749 0,16 0,33 -1,49 649,-6 1301,227 1775,701 868,868 954,2225 259,3191 398,206 903,142 1239,-193 413,-413 413,-1086 1,-1499 -6,-6 -12,-13 -19,-19l-731 -731c-276,-276 -276,-723 0,-999 276,-276 723,-276 999,0l751 751c5,5 9,10 14,15 197,191 457,296 733,296l1 0c283,0 549,-110 750,-310 413,-414 413,-1086 1,-1499 -9,-9 -18,-18 -26,-28l-724 -724c-276,-276 -276,-724 0,-999 276,-276 723,-276 999,0l750 751c7,7 13,13 19,20 414,393 1071,386 1478,-20 413,-413 413,-1085 1,-1498 -12,-12 -24,-25 -36,-38l-714 -713c-276,-276 -276,-723 0,-999 276,-276 723,-276 999,0l750 750c8,8 16,16 24,25 403,376 1081,368 1473,-25 413,-413 414,-1085 1,-1497 -14,-14 -27,-29 -40,-44zm-19178 -229c-11,12 -22,23 -34,34l-234 234c-200,201 -311,466 -311,750 0,283 110,548 311,750 400,400 1098,400 1498,0l1 -1 500 -500c200,-199 310,-466 310,-749 0,-283 -109,-549 -310,-750 -200,-200 -466,-310 -749,-310 -283,0 -549,110 -750,310l-231 231zm3479 1957c-282,0 -548,110 -749,310l-1 1 -1 1 -499 499 -1 1 0 0c-199,200 -309,466 -309,749 0,283 110,548 310,748 401,402 1099,400 1499,1l0 0 500 -500 1 -1c199,-200 309,-466 309,-749 0,-284 -110,-549 -310,-750 -200,-201 -466,-310 -749,-310l0 0zm2498 2498c-283,0 -549,110 -749,310l-1 1 -500 500 0 0c-413,413 -413,1086 0,1500 200,199 465,310 748,310 283,0 550,-110 751,-311l500 -500c200,-200 310,-466 310,-750 0,-283 -110,-549 -310,-750 -200,-200 -467,-309 -750,-309zm2497 2498c-282,0 -547,109 -748,310l-499 501c-414,413 -414,1086 -1,1500 199,198 465,310 747,310l1 0c283,0 549,-110 750,-311l500 -500c413,-412 413,-1084 0,-1497 -201,-200 -468,-312 -751,-312l0 0zm-1743 -11681l3243 -3244 1 -1c400,-400 933,-621 1499,-622l1 0c567,0 1099,221 1500,622l0 0 1 1 5828 5828 1781 -3204 -7257 -7258 -3433 1718 -4416 4412c-42,42 -87,77 -135,106 -30,53 -68,102 -113,147 -413,413 -413,1085 0,1499 413,413 1086,411 1500,-1l3 -3z"/>
 </g>
</svg>
