<?xml version="1.0" encoding="UTF-8"?>
<!DOCTYPE svg PUBLIC "-//W3C//DTD SVG 1.1//EN" "http://www.w3.org/Graphics/SVG/1.1/DTD/svg11.dtd">
<!-- Creator: CorelDRAW -->
<svg xmlns="http://www.w3.org/2000/svg" xml:space="preserve" width="85.5816mm" height="47.2107mm" version="1.1" style="shape-rendering:geometricPrecision; text-rendering:geometricPrecision; image-rendering:optimizeQuality; fill-rule:evenodd; clip-rule:evenodd"
viewBox="0 0 26406 14567"
 xmlns:xlink="http://www.w3.org/1999/xlink"
 xmlns:xodm="http://www.corel.com/coreldraw/odm/2003">
 <defs>
  <style type="text/css">
   <![CDATA[
    .fil0 {fill:#370E0C;fill-rule:nonzero}
   ]]>
  </style>
 </defs>
 <g id="Слой_x0020_1">
  <metadata id="CorelCorpID_0Corel-Layer"/>
  <g id="_105553129820384">
   <path class="fil0" d="M25950 14567l-25495 0c-252,0 -455,-204 -455,-455l0 -11834c0,-252 203,-455 455,-455l1366 0c252,0 455,204 455,455 0,252 -204,455 -455,455l-910 0 0 10923 24584 0 0 -10923 -910 0c-252,0 -455,-203 -455,-455 0,-252 203,-455 455,-455l1366 0c252,0 455,204 455,455l0 11834c0,252 -204,455 -455,455z"/>
   <path class="fil0" d="M13203 2733c-252,0 -455,-203 -455,-455 0,-1256 1021,-2277 2277,-2277 252,0 455,204 455,455 0,252 -204,455 -455,455 -753,0 -1366,613 -1366,1367 0,252 -204,455 -455,455z"/>
   <path class="fil0" d="M24585 911l-9561 0c-252,0 -455,-203 -455,-455 0,-251 203,-455 455,-455l9561 0c252,0 455,204 455,455 0,252 -204,455 -455,455z"/>
   <path class="fil0" d="M13203 14567c-252,0 -455,-204 -455,-455 0,-1255 1021,-2277 2277,-2277 252,0 455,203 455,455 0,252 -204,455 -455,455 -753,0 -1366,613 -1366,1366 0,252 -204,455 -455,455z"/>
   <path class="fil0" d="M24585 12745l-9561 0c-252,0 -455,-204 -455,-455 0,-252 203,-455 455,-455l9561 0c252,0 455,203 455,455 0,252 -204,455 -455,455z"/>
   <path class="fil0" d="M24585 12745c-252,0 -455,-204 -455,-455l0 -11835c0,-251 203,-455 455,-455 252,0 455,204 455,455l0 11835c0,252 -204,455 -455,455z"/>
   <path class="fil0" d="M13203 2733c-252,0 -455,-203 -455,-455 0,-753 -613,-1367 -1366,-1367 -252,0 -455,-203 -455,-455 0,-251 203,-455 455,-455 1255,0 2277,1022 2277,2277 0,252 -204,455 -455,455z"/>
   <path class="fil0" d="M11382 911l-9561 0c-252,0 -455,-203 -455,-455 0,-251 203,-455 455,-455l2222 0 7339 0c252,0 455,204 455,455 0,252 -204,455 -455,455z"/>
   <path class="fil0" d="M13203 14567c-252,0 -455,-204 -455,-455 0,-753 -613,-1366 -1366,-1366 -252,0 -455,-204 -455,-455 0,-252 203,-455 455,-455 1255,0 2277,1021 2277,2277 0,252 -204,455 -455,455z"/>
   <path class="fil0" d="M11382 12745l-9561 0c-252,0 -455,-204 -455,-455 0,-252 203,-455 455,-455l9561 0c252,0 455,203 455,455 0,252 -204,455 -455,455z"/>
   <path class="fil0" d="M1821 12745c-252,0 -455,-204 -455,-455l0 -11835c0,-251 203,-455 455,-455 252,0 455,204 455,455l0 11835c0,252 -204,455 -455,455z"/>
   <path class="fil0" d="M13203 14567c-252,0 -455,-204 -455,-455l0 -11834c0,-252 203,-455 455,-455 252,0 455,204 455,455l0 11834c0,252 -204,455 -455,455z"/>
   <path class="fil0" d="M8194 3187l-4097 0c-252,0 -455,-203 -455,-455 0,-252 203,-455 455,-455l4097 0c252,0 455,204 455,455 0,252 -204,455 -455,455z"/>
   <path class="fil0" d="M7285 6832l-3187 0c-252,0 -455,-203 -455,-455 0,-252 203,-455 455,-455l3187 0c252,0 455,204 455,455 0,252 -204,455 -455,455z"/>
   <path class="fil0" d="M10926 6832l-1820 0c-252,0 -455,-203 -455,-455 0,-252 203,-455 455,-455l1820 0c252,0 455,204 455,455 0,252 -204,455 -455,455z"/>
   <path class="fil0" d="M10926 5009l-5008 0c-252,0 -455,-203 -455,-455 0,-252 203,-455 455,-455l5008 0c252,0 455,204 455,455 0,252 -204,455 -455,455z"/>
   <path class="fil0" d="M4553 5009l-455 0c-252,0 -455,-203 -455,-455 0,-252 203,-455 455,-455l455 0c252,0 455,204 455,455 0,252 -204,455 -455,455z"/>
   <path class="fil0" d="M10926 3187l-911 0c-252,0 -455,-203 -455,-455 0,-252 203,-455 455,-455l911 0c252,0 455,204 455,455 0,252 -204,455 -455,455z"/>
   <path class="fil0" d="M8650 8654l-4552 0c-252,0 -455,-204 -455,-455 0,-252 203,-455 455,-455l4552 0c252,0 455,203 455,455 0,252 -204,455 -455,455l0 0z"/>
   <path class="fil0" d="M10926 8654l-455 0c-252,0 -455,-204 -455,-455 0,-252 203,-455 455,-455l455 0c252,0 455,203 455,455 0,252 -204,455 -455,455l0 0z"/>
   <path class="fil0" d="M5919 10476l-1821 0c-252,0 -455,-204 -455,-455 0,-252 203,-455 455,-455l1821 0c252,0 455,203 455,455 0,252 -204,455 -455,455z"/>
   <path class="fil0" d="M10926 10476l-3186 0c-252,0 -455,-204 -455,-455 0,-252 203,-455 455,-455l3186 0c252,0 455,203 455,455 0,252 -204,455 -455,455z"/>
   <path class="fil0" d="M22316 3183l-4097 0c-252,0 -455,-204 -455,-455 0,-252 203,-455 455,-455l4097 0c252,0 455,203 455,455 0,252 -204,455 -455,455z"/>
   <path class="fil0" d="M22316 6828l-3187 0c-252,0 -455,-203 -455,-455 0,-252 203,-455 455,-455l3187 0c252,0 455,204 455,455 0,252 -204,455 -455,455z"/>
   <path class="fil0" d="M17308 6828l-1820 0c-252,0 -455,-203 -455,-455 0,-252 203,-455 455,-455l1820 0c252,0 455,204 455,455 0,252 -204,455 -455,455z"/>
   <path class="fil0" d="M20495 5005l-5008 0c-252,0 -455,-204 -455,-455 0,-252 203,-455 455,-455l5008 0c252,0 455,203 455,455 0,252 -204,455 -455,455z"/>
   <path class="fil0" d="M22316 5005l-455 0c-252,0 -455,-204 -455,-455 0,-252 203,-455 455,-455l455 0c252,0 455,203 455,455 0,252 -204,455 -455,455z"/>
   <path class="fil0" d="M16398 3183l-911 0c-252,0 -455,-204 -455,-455 0,-252 203,-455 455,-455l911 0c252,0 455,203 455,455 0,252 -204,455 -455,455z"/>
   <path class="fil0" d="M22316 8650l-4552 0c-252,0 -455,-203 -455,-455 0,-252 203,-455 455,-455l4552 0c252,0 455,204 455,455 0,252 -204,455 -455,455z"/>
   <path class="fil0" d="M15943 8650l-455 0c-252,0 -455,-203 -455,-455 0,-252 203,-455 455,-455l455 0c252,0 455,204 455,455 0,252 -204,455 -455,455z"/>
   <path class="fil0" d="M22316 10472l-1821 0c-252,0 -455,-203 -455,-455 0,-252 203,-455 455,-455l1821 0c252,0 455,204 455,455 0,252 -204,455 -455,455z"/>
   <path class="fil0" d="M18674 10472l-3186 0c-252,0 -455,-203 -455,-455 0,-252 203,-455 455,-455l3186 0c252,0 455,204 455,455 0,252 -204,455 -455,455z"/>
   <path class="fil0" d="M8194 911c-252,0 -455,-203 -455,-455l0 -455 911 0 0 455c0,252 -204,455 -455,455z"/>
   <path class="fil0" d="M18212 911c-252,0 -455,-203 -455,-455l0 -455 911 0 0 455c0,252 -204,455 -455,455z"/>
  </g>
 </g>
</svg>
