<?xml version="1.0" encoding="UTF-8"?>
<!DOCTYPE svg PUBLIC "-//W3C//DTD SVG 1.1//EN" "http://www.w3.org/Graphics/SVG/1.1/DTD/svg11.dtd">
<!-- Creator: CorelDRAW -->
<svg xmlns="http://www.w3.org/2000/svg" xml:space="preserve" width="27.9493mm" height="28mm" version="1.1" style="shape-rendering:geometricPrecision; text-rendering:geometricPrecision; image-rendering:optimizeQuality; fill-rule:evenodd; clip-rule:evenodd"
viewBox="0 0 1859 1862"
 xmlns:xlink="http://www.w3.org/1999/xlink"
 xmlns:xodm="http://www.corel.com/coreldraw/odm/2003">
 <defs>
  <style type="text/css">
   <![CDATA[
    .fil0 {fill:#475993}
   ]]>
  </style>
 </defs>
 <g id="Слой_x0020_1">
  <metadata id="CorelCorpID_0Corel-Layer"/>
  <path class="fil0" d="M920 1855l1 -658c-220,-9 -212,43 -213,-142 -1,-221 14,-136 211,-155 15,-204 -44,-525 299,-569l244 -2c70,19 25,242 25,242 -51,49 -188,-15 -250,54 -41,46 -33,205 -26,277 343,-1 307,-43 271,235 -12,90 -68,60 -272,60l-1 661c106,1 349,12 439,-4 114,-20 202,-115 206,-242 10,-290 0,-598 0,-890 0,-147 0,-294 0,-441 -1,-347 -345,-275 -615,-275l-889 0c-119,0 -243,-7 -317,131 -48,89 -30,296 -30,411l0 889c0,154 -10,284 88,360 106,82 229,59 382,59 130,0 325,12 446,-2z"/>
 </g>
</svg>
