<?xml version="1.0" encoding="UTF-8"?>
<!DOCTYPE svg PUBLIC "-//W3C//DTD SVG 1.1//EN" "http://www.w3.org/Graphics/SVG/1.1/DTD/svg11.dtd">
<!-- Creator: CorelDRAW -->
<svg xmlns="http://www.w3.org/2000/svg" xml:space="preserve" width="335.848mm" height="45.465mm" version="1.1" style="shape-rendering:geometricPrecision; text-rendering:geometricPrecision; image-rendering:optimizeQuality; fill-rule:evenodd; clip-rule:evenodd"
viewBox="0 0 606826 82148"
 xmlns:xlink="http://www.w3.org/1999/xlink"
 xmlns:xodm="http://www.corel.com/coreldraw/odm/2003">
 <defs>
  <style type="text/css">
   <![CDATA[
    .fil0 {fill:black;fill-rule:nonzero}
   ]]>
  </style>
 </defs>
 <g id="Слой_x0020_1">
  <metadata id="CorelCorpID_0Corel-Layer"/>
  <g id="_105553192937440">
   <path class="fil0" d="M34912 2142l0 40528 -5674 0 0 -35491 -23507 0 0 35491 -5732 0 0 -40528 34912 0zm24838 40876c-3049,0 -5790,-676 -8222,-2027 -2432,-1351 -4333,-3213 -5703,-5587 -1370,-2374 -2055,-5066 -2055,-8077 0,-3011 685,-5703 2055,-8077 1370,-2374 3271,-4226 5703,-5558 2432,-1332 5172,-1998 8222,-1998 3049,0 5780,666 8192,1998 2413,1332 4304,3184 5674,5558 1370,2374 2055,5066 2055,8077 0,3011 -685,5703 -2055,8077 -1370,2374 -3261,4236 -5674,5587 -2412,1351 -5143,2027 -8192,2027zm0 -4863c1968,0 3734,-454 5298,-1361 1563,-907 2789,-2181 3677,-3821 888,-1640 1332,-3522 1332,-5645 0,-2123 -444,-4005 -1332,-5645 -888,-1641 -2113,-2905 -3677,-3792 -1563,-888 -3329,-1332 -5298,-1332 -1969,0 -3734,444 -5298,1332 -1563,888 -2798,2152 -3705,3792 -907,1640 -1361,3522 -1361,5645 0,2123 454,4005 1361,5645 907,1640 2142,2914 3705,3821 1563,907 3329,1361 5298,1361zm48460 -26170l0 30686 -5558 0 0 -12390c-3319,1544 -6620,2316 -9900,2316 -3821,0 -6774,-888 -8858,-2663 -2084,-1775 -3127,-4439 -3127,-7990l0 -9958 5558 0 0 9611c0,2123 666,3725 1997,4805 1332,1081 3194,1621 5587,1621 2702,0 5616,-675 8742,-2026l0 -14011 5558 0zm38502 15517c0,425 -38,984 -116,1679l-24896 0c347,2702 1534,4873 3561,6514 2026,1640 4545,2461 7556,2461 3667,0 6620,-1235 8858,-3705l3068 3589c-1389,1621 -3117,2856 -5182,3706 -2065,849 -4371,1274 -6919,1274 -3242,0 -6118,-666 -8627,-1997 -2509,-1332 -4448,-3194 -5819,-5587 -1370,-2393 -2055,-5095 -2055,-8106 0,-2972 666,-5655 1997,-8048 1331,-2393 3165,-4255 5500,-5587 2335,-1332 4970,-1998 7903,-1998 2934,0 5548,666 7845,1998 2297,1332 4091,3194 5385,5587 1293,2393 1939,5134 1939,8222zm-15169 -11116c-2663,0 -4892,811 -6687,2432 -1795,1621 -2847,3744 -3155,6369l19685 0c-309,-2586 -1361,-4699 -3155,-6340 -1795,-1640 -4024,-2461 -6687,-2461zm-5442 -9843c-811,0 -1505,-280 -2084,-840 -579,-560 -869,-1264 -869,-2113 0,-849 290,-1563 869,-2142 579,-579 1274,-868 2084,-868 810,0 1505,289 2084,868 579,579 869,1293 869,2142 0,849 -289,1554 -869,2113 -579,560 -1274,840 -2084,840zm10769 0c-810,0 -1505,-280 -2084,-840 -579,-560 -869,-1264 -869,-2113 0,-849 289,-1563 869,-2142 579,-579 1274,-868 2084,-868 811,0 1505,289 2084,868 579,579 868,1293 868,2142 0,849 -289,1554 -868,2113 -579,560 -1274,840 -2084,840zm40065 10306l-11232 0 0 25822 -5558 0 0 -25822 -11232 0 0 -4863 28023 0 0 4863zm5674 -4863l5558 0 0 13027 17485 0 0 -13027 5558 0 0 30686 -5558 0 0 -12853 -17485 0 0 12853 -5558 0 0 -30686zm53266 10422c3860,39 6813,926 8858,2663 2046,1737 3069,4188 3069,7353 0,3320 -1110,5877 -3329,7672 -2220,1795 -5394,2673 -9524,2634l-12911 -58 0 -30686 5558 0 0 10364 8279 58zm16501 -10422l5558 0 0 30686 -5558 0 0 -30686zm-17833 26517c2509,38 4410,-463 5703,-1505 1293,-1042 1940,-2586 1940,-4632 0,-2007 -637,-3474 -1911,-4400 -1274,-926 -3184,-1409 -5732,-1447l-6948 -116 0 12043 6948 58zm34218 -26517l5558 0 0 22349 18817 -22349 5037 0 0 30686 -5558 0 0 -22348 -18759 22348 -5095 0 0 -30686zm14358 -3995c-2856,0 -5076,-685 -6658,-2055 -1583,-1370 -2393,-3348 -2432,-5934l3763 0c39,1428 531,2576 1477,3445 946,869 2210,1303 3792,1303 1582,0 2856,-434 3821,-1303 965,-868 1467,-2017 1505,-3445l3879 0c-39,2586 -868,4564 -2490,5934 -1621,1370 -3840,2055 -6658,2055zm68667 24549l-21538 0 -4458 10132 -5964 0 18354 -40528 5732 0 18412 40528 -6079 0 -4458 -10132zm-2026 -4632l-8743 -19859 -8743 19859 17485 0zm50024 9901l0 11985 -5211 0 0 -7122 -25649 0 0 7122 -5269 0 0 -11985 1621 0c1969,-116 3319,-1505 4053,-4169 733,-2663 1235,-6427 1505,-11290l463 -10364 23796 0 0 25823 4690 0zm-23854 -15054c-154,3860 -473,7054 -955,9582 -482,2528 -1361,4352 -2634,5471l17196 0 0 -20959 -13316 0 -289 5906zm51992 3995c3976,1004 5964,3493 5964,7469 0,2702 -1013,4786 -3040,6253 -2026,1467 -5047,2200 -9061,2200l-14764 0 0 -30686 14243 0c3628,0 6465,685 8511,2055 2046,1370 3069,3310 3069,5819 0,1621 -434,3020 -1303,4197 -868,1177 -2075,2075 -3619,2692zm-15459 -1563l8337 0c2123,0 3735,-386 4835,-1158 1100,-772 1650,-1891 1650,-3358 0,-2933 -2162,-4400 -6485,-4400l-8337 0 0 8916zm8916 13201c2316,0 4053,-367 5211,-1100 1158,-733 1737,-1872 1737,-3416 0,-1582 -531,-2760 -1592,-3532 -1062,-772 -2731,-1158 -5008,-1158l-9264 0 0 9206 8916 0zm34333 4632c-3049,0 -5790,-676 -8221,-2027 -2432,-1351 -4333,-3213 -5703,-5587 -1370,-2374 -2055,-5066 -2055,-8077 0,-3011 685,-5703 2055,-8077 1370,-2374 3271,-4226 5703,-5558 2432,-1332 5172,-1998 8221,-1998 3049,0 5780,666 8193,1998 2412,1332 4304,3184 5674,5558 1370,2374 2055,5066 2055,8077 0,3011 -685,5703 -2055,8077 -1370,2374 -3262,4236 -5674,5587 -2412,1351 -5143,2027 -8193,2027zm0 -4863c1969,0 3734,-454 5298,-1361 1563,-907 2789,-2181 3676,-3821 888,-1640 1332,-3522 1332,-5645 0,-2123 -444,-4005 -1332,-5645 -888,-1641 -2113,-2905 -3676,-3792 -1563,-888 -3329,-1332 -5298,-1332 -1969,0 -3734,444 -5298,1332 -1563,888 -2798,2152 -3705,3792 -907,1640 -1361,3522 -1361,5645 0,2123 454,4005 1361,5645 907,1640 2142,2914 3705,3821 1563,907 3329,1361 5298,1361zm35897 -8453l-6369 0 0 12969 -5558 0 0 -30686 5558 0 0 12969 6485 0 9958 -12969 5964 0 -11637 14764 12448 15922 -6542 0 -10306 -12969zm33060 -18006c4246,0 7498,1042 9756,3127 2258,2084 3387,5191 3387,9322l0 18527 -5269 0 0 -4053c-926,1428 -2248,2519 -3966,3271 -1718,753 -3754,1129 -6108,1129 -3435,0 -6185,-830 -8250,-2490 -2065,-1660 -3097,-3841 -3097,-6542 0,-2702 984,-4873 2953,-6514 1969,-1640 5095,-2461 9380,-2461l8800 0 0 -1100c0,-2393 -695,-4227 -2084,-5500 -1389,-1274 -3435,-1911 -6137,-1911 -1814,0 -3589,299 -5327,897 -1737,598 -3204,1399 -4400,2403l-2316 -4169c1582,-1274 3474,-2248 5674,-2924 2200,-675 4535,-1013 7006,-1013zm-1274 27038c2123,0 3956,-473 5500,-1419 1544,-946 2663,-2287 3358,-4024l0 -4284 -8569 0c-4709,0 -7064,1582 -7064,4748 0,1544 598,2760 1795,3647 1196,888 2856,1332 4979,1332zm47302 -21885l-11232 0 0 25822 -5558 0 0 -25822 -11232 0 0 -4863 28023 0 0 4863zm24375 5500c3783,0 6687,878 8714,2634 2026,1756 3040,4217 3040,7382 0,3281 -1110,5819 -3329,7614 -2219,1795 -5355,2692 -9408,2692l-12911 0 0 -25822 -9380 0 0 -4863 14938 0 0 10364 8337 0zm-1158 16096c2393,0 4207,-521 5442,-1563 1235,-1042 1853,-2586 1853,-4632 0,-1969 -608,-3426 -1824,-4371 -1216,-946 -3040,-1418 -5471,-1418l-7179 0 0 11985 7179 0z"/>
   <path class="fil0" d="M17405 63547l0 15098 -2478 0 0 -11024 -5640 9315 -1196 0 -5583 -9344 0 11053 -2507 0 0 -15098 2820 0 5925 10198 6096 -10198 2564 0zm15706 15269c-1500,0 -2849,-332 -4045,-997 -1196,-665 -2132,-1581 -2806,-2749 -674,-1168 -1011,-2493 -1011,-3974 0,-1481 337,-2806 1011,-3974 674,-1168 1610,-2080 2806,-2735 1196,-655 2545,-983 4045,-983 1500,0 2844,328 4031,983 1187,655 2118,1567 2792,2735 674,1168 1011,2493 1011,3974 0,1481 -337,2806 -1011,3974 -674,1168 -1605,2084 -2792,2749 -1187,665 -2531,997 -4031,997zm0 -2393c968,0 1838,-223 2607,-669 769,-446 1372,-1073 1809,-1880 437,-807 655,-1733 655,-2777 0,-1045 -218,-1970 -655,-2777 -437,-807 -1040,-1429 -1809,-1866 -769,-437 -1638,-655 -2607,-655 -968,0 -1837,218 -2607,655 -769,437 -1377,1059 -1823,1866 -446,807 -669,1733 -669,2777 0,1044 223,1970 669,2777 446,807 1054,1434 1823,1880 769,446 1638,669 2607,669zm22287 2393c-1538,0 -2910,-332 -4116,-997 -1206,-665 -2151,-1581 -2834,-2749 -684,-1168 -1026,-2493 -1026,-3974 0,-1481 342,-2806 1026,-3974 684,-1168 1629,-2080 2834,-2735 1206,-655 2578,-983 4116,-983 1367,0 2588,275 3660,826 1073,551 1904,1348 2493,2393l-2080 1339c-475,-722 -1064,-1263 -1766,-1624 -703,-361 -1481,-541 -2336,-541 -987,0 -1875,218 -2663,655 -788,437 -1405,1059 -1852,1866 -446,807 -669,1733 -669,2777 0,1064 223,1999 669,2806 446,807 1064,1429 1852,1866 788,437 1676,655 2663,655 855,0 1633,-181 2336,-541 703,-361 1292,-902 1766,-1624l2080 1310c-589,1045 -1420,1847 -2493,2407 -1073,560 -2293,841 -3660,841zm19466 -6552l-3133 0 0 6381 -2735 0 0 -15098 2735 0 0 6381 3191 0 4900 -6381 2934 0 -5726 7264 6125 7834 -3219 0 -5071 -6381zm21033 6552c-1500,0 -2849,-332 -4045,-997 -1196,-665 -2132,-1581 -2806,-2749 -674,-1168 -1011,-2493 -1011,-3974 0,-1481 337,-2806 1011,-3974 674,-1168 1610,-2080 2806,-2735 1196,-655 2545,-983 4045,-983 1500,0 2844,328 4031,983 1187,655 2118,1567 2792,2735 674,1168 1011,2493 1011,3974 0,1481 -337,2806 -1011,3974 -674,1168 -1605,2084 -2792,2749 -1187,665 -2530,997 -4031,997zm0 -2393c969,0 1838,-223 2607,-669 769,-446 1372,-1073 1809,-1880 437,-807 655,-1733 655,-2777 0,-1045 -218,-1970 -655,-2777 -437,-807 -1040,-1429 -1809,-1866 -769,-437 -1638,-655 -2607,-655 -968,0 -1837,218 -2607,655 -769,437 -1377,1059 -1823,1866 -446,807 -669,1733 -669,2777 0,1044 223,1970 669,2777 446,807 1054,1434 1823,1880 769,446 1638,669 2607,669zm25990 -5612c1956,494 2934,1719 2934,3675 0,1329 -499,2355 -1496,3077 -997,722 -2483,1082 -4458,1082l-7264 0 0 -15098 7008 0c1785,0 3181,337 4188,1011 1007,674 1510,1629 1510,2863 0,798 -214,1486 -641,2065 -428,579 -1021,1021 -1781,1325zm-7606 -769l4102 0c1045,0 1837,-190 2379,-570 541,-380 812,-931 812,-1652 0,-1443 -1064,-2165 -3191,-2165l-4102 0 0 4387zm4387 6495c1140,0 1994,-181 2564,-541 570,-361 854,-921 854,-1681 0,-779 -261,-1358 -783,-1738 -522,-380 -1344,-570 -2464,-570l-4558 0 0 4529 4387 0zm20919 2279c-1538,0 -2910,-332 -4116,-997 -1206,-665 -2151,-1581 -2834,-2749 -684,-1168 -1026,-2493 -1026,-3974 0,-1481 342,-2806 1026,-3974 684,-1168 1628,-2080 2834,-2735 1206,-655 2578,-983 4116,-983 1367,0 2588,275 3661,826 1073,551 1904,1348 2493,2393l-2080 1339c-475,-722 -1064,-1263 -1766,-1624 -703,-361 -1481,-541 -2336,-541 -987,0 -1875,218 -2663,655 -788,437 -1405,1059 -1852,1866 -446,807 -669,1733 -669,2777 0,1064 223,1999 669,2806 446,807 1064,1429 1852,1866 788,437 1676,655 2663,655 855,0 1633,-181 2336,-541 703,-361 1291,-902 1766,-1624l2080 1310c-589,1045 -1420,1847 -2493,2407 -1073,560 -2293,841 -3661,841zm19466 -6552l-3133 0 0 6381 -2735 0 0 -15098 2735 0 0 6381 3191 0 4900 -6381 2934 0 -5726 7264 6125 7834 -3219 0 -5071 -6381zm20179 -8859c2089,0 3689,513 4800,1538 1111,1026 1666,2555 1666,4587l0 9116 -2592 0 0 -1994c-456,703 -1106,1239 -1951,1610 -845,370 -1847,556 -3005,556 -1690,0 -3043,-409 -4059,-1225 -1016,-817 -1524,-1890 -1524,-3219 0,-1329 484,-2398 1453,-3205 968,-807 2507,-1211 4615,-1211l4330 0 0 -541c0,-1177 -342,-2080 -1026,-2706 -684,-627 -1690,-940 -3020,-940 -893,0 -1766,147 -2621,441 -855,295 -1576,688 -2165,1182l-1140 -2051c779,-627 1709,-1106 2792,-1439 1082,-332 2231,-499 3447,-499zm-627 13303c1044,0 1947,-233 2706,-698 760,-465 1310,-1125 1652,-1980l0 -2108 -4216 0c-2317,0 -3475,779 -3475,2336 0,760 294,1358 883,1795 589,437 1405,655 2450,655zm28041 -13161l0 15098 -2450 0 0 -4786 -4387 0 -313 0 -3304 4786 -2934 0 3675 -5156c-1139,-342 -2013,-907 -2621,-1695 -608,-788 -912,-1771 -912,-2948 0,-1728 589,-3043 1766,-3945 1178,-902 2801,-1353 4871,-1353l6609 0zm-10455 5384c0,1006 318,1752 954,2236 636,484 1591,726 2863,726l4188 0 0 -5954 -4074 0c-2621,0 -3931,997 -3931,2991zm48551 3333l-3134 0 0 6381 -2735 0 0 -15098 2735 0 0 6381 3191 0 4900 -6381 2934 0 -5726 7264 6125 7834 -3219 0 -5071 -6381zm21033 6552c-1500,0 -2849,-332 -4045,-997 -1196,-665 -2132,-1581 -2806,-2749 -674,-1168 -1011,-2493 -1011,-3974 0,-1481 337,-2806 1011,-3974 674,-1168 1609,-2080 2806,-2735 1196,-655 2545,-983 4045,-983 1500,0 2844,328 4031,983 1187,655 2118,1567 2792,2735 674,1168 1011,2493 1011,3974 0,1481 -337,2806 -1011,3974 -674,1168 -1605,2084 -2792,2749 -1187,665 -2530,997 -4031,997zm0 -2393c969,0 1838,-223 2607,-669 769,-446 1372,-1073 1809,-1880 437,-807 655,-1733 655,-2777 0,-1045 -218,-1970 -655,-2777 -437,-807 -1040,-1429 -1809,-1866 -769,-437 -1638,-655 -2607,-655 -968,0 -1837,218 -2607,655 -769,437 -1377,1059 -1823,1866 -446,807 -669,1733 -669,2777 0,1044 223,1970 669,2777 446,807 1054,1434 1823,1880 769,446 1638,669 2607,669zm28554 -12876l0 15098 -2735 0 0 -12705 -6495 0 -171 3361c-95,2032 -275,3727 -541,5085 -266,1358 -703,2445 -1310,3262 -608,817 -1453,1225 -2535,1225 -494,0 -1054,-85 -1681,-256l171 -2307c247,57 475,85 684,85 760,0 1329,-332 1709,-997 380,-665 627,-1453 741,-2365 114,-912 218,-2212 313,-3902l256 -5584 11594 0zm22173 0l0 15098 -2735 0 0 -12705 -6495 0 -171 3361c-95,2032 -275,3727 -541,5085 -266,1358 -703,2445 -1310,3262 -608,817 -1453,1225 -2535,1225 -494,0 -1054,-85 -1681,-256l171 -2307c247,57 475,85 684,85 760,0 1329,-332 1709,-997 380,-665 627,-1453 741,-2365 114,-912 218,-2212 313,-3902l256 -5584 11594 0zm22856 7634c0,209 -19,484 -57,826l-12249 0c171,1329 755,2398 1752,3205 997,807 2236,1211 3718,1211 1804,0 3257,-608 4358,-1823l1510 1766c-684,798 -1534,1405 -2549,1823 -1016,418 -2151,627 -3404,627 -1595,0 -3010,-328 -4244,-983 -1234,-655 -2189,-1572 -2863,-2749 -674,-1178 -1011,-2507 -1011,-3988 0,-1462 328,-2782 983,-3960 655,-1178 1557,-2094 2706,-2749 1149,-655 2445,-983 3888,-983 1443,0 2730,328 3860,983 1130,655 2013,1572 2649,2749 636,1177 954,2526 954,4045zm-7464 -5469c-1310,0 -2407,399 -3290,1196 -883,798 -1400,1842 -1552,3134l9685 0c-152,-1272 -669,-2312 -1552,-3119 -883,-807 -1980,-1211 -3290,-1211zm26731 228l-8375 0 0 12705 -2735 0 0 -15098 11110 0 0 2393zm6704 -2393l2735 0 0 10996 9258 -10996 2478 0 0 15098 -2735 0 0 -10996 -9230 10996 -2507 0 0 -15098zm35789 0l0 15098 -2450 0 0 -4786 -4387 0 -313 0 -3304 4786 -2934 0 3675 -5156c-1139,-342 -2013,-907 -2621,-1695 -608,-788 -912,-1771 -912,-2948 0,-1728 589,-3043 1766,-3945 1178,-902 2801,-1353 4871,-1353l6609 0zm-10455 5384c0,1006 318,1752 954,2236 636,484 1591,726 2863,726l4188 0 0 -5954 -4074 0c-2621,0 -3931,997 -3931,2991zm40404 -5526c2089,0 3689,513 4800,1538 1111,1026 1666,2555 1666,4587l0 9116 -2592 0 0 -1994c-456,703 -1106,1239 -1951,1610 -845,370 -1847,556 -3005,556 -1690,0 -3043,-409 -4059,-1225 -1016,-817 -1524,-1890 -1524,-3219 0,-1329 484,-2398 1453,-3205 969,-807 2507,-1211 4615,-1211l4330 0 0 -541c0,-1177 -342,-2080 -1026,-2706 -684,-627 -1690,-940 -3020,-940 -893,0 -1766,147 -2621,441 -855,295 -1576,688 -2165,1182l-1140 -2051c779,-627 1709,-1106 2792,-1439 1082,-332 2231,-499 3447,-499zm-627 13303c1045,0 1947,-233 2706,-698 760,-465 1310,-1125 1652,-1980l0 -2108 -4216 0c-2317,0 -3475,779 -3475,2336 0,760 294,1358 883,1795 589,437 1405,655 2450,655zm31288 -456l0 5897 -2564 0 0 -3504 -12620 0 0 3504 -2592 0 0 -5897 798 0c968,-57 1633,-741 1994,-2051 361,-1310 608,-3162 741,-5555l228 -5099 11708 0 0 12705 2307 0zm-11737 -7406c-76,1899 -233,3471 -470,4715 -237,1244 -669,2141 -1296,2692l8461 0 0 -10312 -6552 0 -143 2906zm29494 1965c1956,494 2934,1719 2934,3675 0,1329 -499,2355 -1496,3077 -997,722 -2483,1082 -4458,1082l-7264 0 0 -15098 7008 0c1785,0 3181,337 4187,1011 1007,674 1510,1629 1510,2863 0,798 -214,1486 -641,2065 -427,579 -1021,1021 -1780,1325zm-7606 -769l4102 0c1045,0 1837,-190 2379,-570 541,-380 812,-931 812,-1652 0,-1443 -1064,-2165 -3191,-2165l-4102 0 0 4387zm4387 6495c1139,0 1994,-181 2564,-541 570,-361 855,-921 855,-1681 0,-779 -261,-1358 -783,-1738 -522,-380 -1344,-570 -2464,-570l-4558 0 0 4529 4387 0zm20805 2279c-1500,0 -2849,-332 -4045,-997 -1196,-665 -2132,-1581 -2806,-2749 -674,-1168 -1011,-2493 -1011,-3974 0,-1481 337,-2806 1011,-3974 674,-1168 1610,-2080 2806,-2735 1196,-655 2545,-983 4045,-983 1500,0 2844,328 4031,983 1187,655 2118,1567 2792,2735 674,1168 1011,2493 1011,3974 0,1481 -337,2806 -1011,3974 -674,1168 -1605,2084 -2792,2749 -1187,665 -2530,997 -4031,997zm0 -2393c969,0 1838,-223 2607,-669 769,-446 1372,-1073 1809,-1880 437,-807 655,-1733 655,-2777 0,-1045 -218,-1970 -655,-2777 -437,-807 -1040,-1429 -1809,-1866 -769,-437 -1638,-655 -2607,-655 -968,0 -1837,218 -2607,655 -769,437 -1377,1059 -1823,1866 -446,807 -669,1733 -669,2777 0,1044 223,1970 669,2777 446,807 1054,1434 1823,1880 769,446 1638,669 2607,669zm21574 -4159l-3134 0 0 6381 -2735 0 0 -15098 2735 0 0 6381 3191 0 4900 -6381 2934 0 -5726 7264 6125 7834 -3219 0 -5071 -6381zm20179 -8859c2089,0 3689,513 4800,1538 1111,1026 1666,2555 1666,4587l0 9116 -2592 0 0 -1994c-456,703 -1106,1239 -1951,1610 -845,370 -1847,556 -3005,556 -1690,0 -3043,-409 -4059,-1225 -1016,-817 -1524,-1890 -1524,-3219 0,-1329 484,-2398 1453,-3205 968,-807 2507,-1211 4615,-1211l4330 0 0 -541c0,-1177 -342,-2080 -1025,-2706 -684,-627 -1690,-940 -3020,-940 -893,0 -1766,147 -2621,441 -855,295 -1576,688 -2165,1182l-1139 -2051c779,-627 1709,-1106 2792,-1439 1082,-332 2231,-499 3447,-499zm-627 13303c1045,0 1947,-233 2706,-698 760,-465 1311,-1125 1652,-1980l0 -2108 -4216 0c-2317,0 -3475,779 -3475,2336 0,760 294,1358 883,1795 589,437 1405,655 2450,655zm27186 -10768l-5526 0 0 12705 -2735 0 0 -12705 -5526 0 0 -2393 13788 0 0 2393zm12515 12876c-1500,0 -2848,-332 -4045,-997 -1196,-665 -2132,-1581 -2806,-2749 -674,-1168 -1011,-2493 -1011,-3974 0,-1481 337,-2806 1011,-3974 674,-1168 1609,-2080 2806,-2735 1196,-655 2545,-983 4045,-983 1500,0 2844,328 4031,983 1187,655 2118,1567 2792,2735 674,1168 1011,2493 1011,3974 0,1481 -337,2806 -1011,3974 -674,1168 -1605,2084 -2792,2749 -1187,665 -2530,997 -4031,997zm0 -2393c969,0 1838,-223 2607,-669 769,-446 1372,-1073 1809,-1880 437,-807 655,-1733 655,-2777 0,-1045 -218,-1970 -655,-2777 -437,-807 -1040,-1429 -1809,-1866 -769,-437 -1638,-655 -2607,-655 -968,0 -1837,218 -2607,655 -769,437 -1377,1059 -1823,1866 -446,807 -669,1733 -669,2777 0,1044 223,1970 669,2777 446,807 1054,1434 1823,1880 769,446 1638,669 2607,669zm25990 -5612c1956,494 2934,1719 2934,3675 0,1329 -499,2355 -1496,3077 -997,722 -2483,1082 -4458,1082l-7264 0 0 -15098 7008 0c1785,0 3181,337 4188,1011 1007,674 1510,1629 1510,2863 0,798 -214,1486 -641,2065 -427,579 -1021,1021 -1780,1325zm-7606 -769l4102 0c1045,0 1837,-190 2379,-570 541,-380 812,-931 812,-1652 0,-1443 -1064,-2165 -3191,-2165l-4102 0 0 4387zm4387 6495c1139,0 1994,-181 2564,-541 570,-361 855,-921 855,-1681 0,-779 -261,-1358 -783,-1738 -522,-380 -1344,-570 -2464,-570l-4558 0 0 4529 4387 0z"/>
  </g>
 </g>
</svg>
