<?xml version="1.0" encoding="UTF-8"?>
<!DOCTYPE svg PUBLIC "-//W3C//DTD SVG 1.1//EN" "http://www.w3.org/Graphics/SVG/1.1/DTD/svg11.dtd">
<!-- Creator: CorelDRAW -->
<svg xmlns="http://www.w3.org/2000/svg" xml:space="preserve" width="66.5822mm" height="62.4714mm" version="1.1" style="shape-rendering:geometricPrecision; text-rendering:geometricPrecision; image-rendering:optimizeQuality; fill-rule:evenodd; clip-rule:evenodd"
viewBox="0 0 12675 11893"
 xmlns:xlink="http://www.w3.org/1999/xlink"
 xmlns:xodm="http://www.corel.com/coreldraw/odm/2003">
 <defs>
  <style type="text/css">
   <![CDATA[
    .fil0 {fill:#370E0C;fill-rule:nonzero}
   ]]>
  </style>
 </defs>
 <g id="Слой_x0020_1">
  <metadata id="CorelCorpID_0Corel-Layer"/>
  <path class="fil0" d="M2106 10908c0,-582 473,-1056 1056,-1056l2287 0 0 -7038 -3187 0 1230 3385 0 0 1 2c2,4 3,8 5,12l1 2 1 2 1 2 1 4 1 2 1 2 1 4 1 2 1 2 1 4 1 2 1 2 1 4 1 2 0 2 0 2 0 0 0 2 1 6 0 0 0 0 0 2 0 2 0 2 0 2 0 1 0 1 0 2 0 2 0 2 0 1 0 1 0 2 0 2 0 2 0 1 0 1 0 2 0 2 0 2 0 1 0 1 0 2 0 2 0 2 0 2 0 1 0 2 0 2 0 2 0 2 0 0 0 2 0 6 0 0 0 0 0 2 0 7 0 0 0 8 0 0c-5,966 -792,1750 -1759,1750 -964,0 -1749,-779 -1759,-1740 -3,-46 4,-93 21,-140l1256 -3453c-335,-125 -574,-447 -574,-825 0,-485 394,-880 880,-880 6,0 12,0 17,0l6 0 3842 0 0 -176c0,-485 394,-880 880,-880 485,0 880,395 880,880l0 176 3861 0c5,0 10,0 15,0 485,0 880,395 880,880 0,374 -235,695 -565,821l1255 3453 0 0 0 0 0 0 0 0 0 0 0 0 0 0 0 0 0 0 0 1 0 0 0 0 0 0 0 0 0 0 0 0 0 0 0 0 0 0 0 0 0 0 0 0 0 0 0 0 0 1 0 0 0 0 0 0 0 0 0 0 0 0 0 0 0 0 0 0 0 0 0 0 0 0 0 0 0 0 0 0 0 0 0 0 0 0 0 0 0 0 0 0 0 0 0 0 0 0 0 0 0 0 0 0 0 0 0 0 0 0 0 0 0 0 1 2 0 0 0 0 0 0 2 7 0 0 0 1 1 3 1 3 1 2 0 0c7,32 10,63 9,95 -8,963 -794,1744 -1759,1744 -965,0 -1750,-781 -1759,-1743 -2,-45 5,-91 21,-137l1236 -3398 -3206 0 0 7038 2287 0c582,0 1056,474 1056,1056l0 305 0 48 0 632 -8445 0 0 -632 0 -48 0 -305zm1056 -352c-194,0 -352,158 -352,352l0 305 7037 0 0 -305c0,-194 -158,-352 -352,-352l-6333 0zm2991 -704l352 0 0 -7038 -352 0 0 7038zm4931 -7741c97,0 176,-79 176,-176 0,-94 -75,-171 -167,-176l-9 0 -5283 0 -4194 0c-6,0 -12,0 -17,0l-6 0c-97,0 -176,79 -176,176 0,97 79,176 176,176 4,0 8,0 12,0 4,0 8,0 12,0l133 0c12,-1 25,-1 38,0l4023 0 1055 0 4041 0c12,-1 25,-1 38,0l149 0zm-4579 -1231c0,-97 -79,-176 -176,-176 -97,0 -176,79 -176,176l0 176 352 0 0 -176zm-5740 5806c145,409 536,704 995,704 459,0 850,-294 995,-704l-1990 0zm90 -704l1811 0 -905 -2490 -905 2490zm9067 704c145,409 536,704 995,704 459,0 850,-294 995,-704l-1990 0zm90 -704l1811 0 -905 -2490 -906 2490z"/>
 </g>
</svg>
