<?xml version="1.0" encoding="UTF-8"?>
<!DOCTYPE svg PUBLIC "-//W3C//DTD SVG 1.1//EN" "http://www.w3.org/Graphics/SVG/1.1/DTD/svg11.dtd">
<!-- Creator: CorelDRAW -->
<svg xmlns="http://www.w3.org/2000/svg" xml:space="preserve" width="67.2607mm" height="74.9473mm" version="1.1" style="shape-rendering:geometricPrecision; text-rendering:geometricPrecision; image-rendering:optimizeQuality; fill-rule:evenodd; clip-rule:evenodd"
viewBox="0 0 22000 24514"
 xmlns:xlink="http://www.w3.org/1999/xlink"
 xmlns:xodm="http://www.corel.com/coreldraw/odm/2003">
 <defs>
  <style type="text/css">
   <![CDATA[
    .str0 {stroke:#370E0C;stroke-width:65;stroke-miterlimit:22.9256}
    .fil0 {fill:#370E0C;fill-rule:nonzero}
   ]]>
  </style>
 </defs>
 <g id="Слой_x0020_1">
  <metadata id="CorelCorpID_0Corel-Layer"/>
  <g id="_105553130388512">
   <g id="Page-1">
    <g id="_003---Safe">
     <path id="Shape" class="fil0 str0" d="M1661 21996l0 856c0,900 730,1630 1630,1630l4007 0c900,0 1630,-730 1630,-1630l0 -815 4075 0 0 815c0,900 730,1630 1630,1630l4007 0c900,0 1630,-730 1630,-1630l0 -849c978,-165 1695,-1011 1698,-2003l0 -17929c-1,-1125 -913,-2036 -2037,-2037l-17860 0c-1125,1 -2036,913 -2037,2037l0 1630c0,225 182,407 407,407 225,0 407,-182 407,-407l0 -1630c0,-675 547,-1222 1222,-1222l17860 0c675,0 1222,547 1222,1222l0 17929c0,675 -547,1222 -1222,1222l-17860 0c-675,0 -1222,-547 -1222,-1222l0 -14262c0,-225 -182,-407 -407,-407 -225,0 -407,182 -407,407l0 14262c1,967 681,1801 1629,1997l0 0zm17793 41l0 815c0,450 -365,815 -815,815l-4007 0c-450,0 -815,-365 -815,-815l0 -815 5637 0zm-11341 0l0 815c0,450 -365,815 -815,815l-4007 0c-450,0 -815,-365 -815,-815l0 -815 5637 0z"/>
     <path id="Shape_0" class="fil0 str0" d="M3223 13887c-225,0 -407,182 -407,407l0 3667c0,675 547,1222 1222,1222l13854 0c675,0 1222,-547 1222,-1222l0 -407c675,0 1222,-547 1222,-1222l0 -2445c0,-675 -547,-1222 -1222,-1222l0 -3260c675,0 1222,-547 1222,-1222l0 -2445c0,-675 -547,-1222 -1222,-1222l0 -407c0,-675 -547,-1222 -1222,-1222l-13854 0c-675,0 -1222,547 -1222,1222l0 8150c0,225 182,407 407,407 225,0 407,-182 407,-407l0 -8150c0,-225 182,-407 407,-407l13854 0c225,0 407,182 407,407l0 407c-675,0 -1222,547 -1222,1222l0 2445c0,675 547,1222 1222,1222l0 3260c-675,0 -1222,547 -1222,1222l0 2445c0,675 547,1222 1222,1222l0 407c0,225 -182,407 -407,407l-13854 0c-225,0 -407,-182 -407,-407l0 -3667c0,-225 -182,-407 -407,-407zm14669 -5705l0 -2445c0,-225 182,-407 407,-407l815 0c225,0 407,182 407,407l0 2445c0,225 -182,407 -407,407l-815 0c-225,0 -407,-182 -407,-407zm0 8150l0 -2445c0,-225 182,-407 407,-407l815 0c225,0 407,182 407,407l0 2445c0,225 -182,407 -407,407l-815 0c-225,0 -407,-182 -407,-407z"/>
     <path id="Shape_1" class="fil0 str0" d="M6448 12906c893,2155 3184,3380 5472,2925 2288,-455 3936,-2463 3936,-4796 0,-2333 -1648,-4341 -3936,-4796 -2288,-455 -4579,769 -5472,2925 -500,1197 -500,2545 0,3742zm2589 -5460l148 358c54,138 177,235 324,256 146,20 292,-40 381,-158 89,-118 107,-275 48,-410l-148 -358c766,-233 1584,-233 2350,0l-148 358c-59,135 -41,292 48,410 89,118 235,178 381,158 146,-20 270,-118 324,-256l148 -358c706,377 1285,956 1662,1662l-358 148c-138,54 -235,177 -256,324 -20,146 40,292 158,381 118,89 275,107 410,48l358 -148c233,766 233,1584 0,2350l-358 -148c-135,-59 -292,-41 -410,48 -118,89 -178,235 -158,381 20,146 118,270 256,324l358 148c-377,706 -956,1285 -1662,1662l-148 -358c-54,-138 -177,-235 -324,-256 -146,-20 -292,40 -381,158 -89,118 -107,275 -48,410l148 358c-766,233 -1584,233 -2350,0l148 -358c59,-135 41,-292 -48,-410 -89,-118 -235,-178 -381,-158 -146,20 -270,118 -324,256l-148 358c-706,-377 -1285,-956 -1662,-1662l358 -148c138,-54 235,-177 256,-324 20,-146 -40,-292 -158,-381 -118,-89 -275,-107 -410,-48l-358 148c-233,-766 -233,-1584 0,-2350l358 148c135,59 292,41 410,-48 118,-89 178,-235 158,-381 -20,-146 -118,-270 -256,-324l-358 -148c377,-707 956,-1285 1662,-1663l0 1z"/>
     <path id="Shape_2" class="fil0 str0" d="M10969 13480c1077,-2 2026,-708 2337,-1738 311,-1031 -89,-2144 -985,-2741 -896,-597 -2077,-538 -2909,146 -832,684 -1118,1831 -705,2826 380,913 1273,1508 2262,1508zm-627 -3953c832,-343 1784,53 2128,884 344,831 -51,1784 -883,2129 -831,344 -1784,-50 -2129,-881 -167,-400 -168,-850 -2,-1250 166,-400 485,-718 886,-882l0 0z"/>
     <path id="Shape_3" class="fil0 str0" d="M6891 4515l-2037 0c-225,0 -407,182 -407,407l0 2037c0,225 182,407 407,407 225,0 407,-182 407,-407l0 -1630 1630 0c225,0 407,-182 407,-407 0,-225 -182,-407 -407,-407z"/>
    </g>
   </g>
  </g>
 </g>
</svg>
