<?xml version="1.0" encoding="UTF-8"?>
<!DOCTYPE svg PUBLIC "-//W3C//DTD SVG 1.1//EN" "http://www.w3.org/Graphics/SVG/1.1/DTD/svg11.dtd">
<!-- Creator: CorelDRAW -->
<svg xmlns="http://www.w3.org/2000/svg" xml:space="preserve" width="84.6667mm" height="76.2mm" version="1.1" style="shape-rendering:geometricPrecision; text-rendering:geometricPrecision; image-rendering:optimizeQuality; fill-rule:evenodd; clip-rule:evenodd"
viewBox="0 0 25892 23303"
 xmlns:xlink="http://www.w3.org/1999/xlink"
 xmlns:xodm="http://www.corel.com/coreldraw/odm/2003">
 <defs>
  <style type="text/css">
   <![CDATA[
    .fil0 {fill:#370E0C;fill-rule:nonzero}
   ]]>
  </style>
 </defs>
 <g id="Слой_x0020_1">
  <metadata id="CorelCorpID_0Corel-Layer"/>
  <g id="_105553129875200">
   <circle class="fil0" cx="5178" cy="4747" r="432"/>
   <circle class="fil0" cx="6473" cy="4747" r="432"/>
   <circle class="fil0" cx="7768" cy="4747" r="432"/>
   <path class="fil0" d="M19850 6904c0,-238 -193,-432 -432,-432l-1726 0c-238,0 -432,193 -432,432l0 6473 -863 0 0 -4747c0,-238 -193,-432 -432,-432l-1726 0c-238,0 -432,193 -432,432l0 4747 -863 0 0 -3452c0,-238 -193,-432 -432,-432l-1726 0c-238,0 -432,193 -432,432l0 3452 -863 0 0 -2158c0,-238 -193,-432 -432,-432l-1726 0c-238,0 -431,193 -431,432l0 2158 -1295 0 0 863 15104 0 0 -863 -863 0 0 -6473zm-12083 6473l0 -1726 863 0 0 1726 -863 0zm3452 0l0 -3021 863 0 0 3021 -863 0zm3452 0l0 -4315 863 0 0 4315 -863 0zm3452 0l0 -6041 863 0 0 6041 -863 0z"/>
   <path class="fil0" d="M5610 9062l0 863 2158 0c62,0 123,-13 179,-39l9408 -4277 2927 0 0 -863 -3021 0c-62,0 -123,13 -179,39l-9409 4277 -2064 0z"/>
   <path class="fil0" d="M25460 0l-25029 0c-238,0 -431,193 -431,432l0 15535c0,238 193,431 432,431l9062 0 0 2589 -863 0 0 863 8631 0 0 -863 -863 0 0 -2589 9062 0c238,0 432,-193 432,-432l0 -15535c0,-238 -193,-432 -432,-432zm-3452 15535l-18124 0 0 -11651c0,-238 193,-431 432,-432l17261 0c238,0 431,193 432,432l0 11651zm-6473 3452l-5178 0 0 -2589 5178 0 0 2589zm9494 -3452l-2158 0 0 -11651c-1,-715 -580,-1294 -1295,-1295l-17261 0c-714,1 -1294,580 -1295,1295l0 11651 -2158 0 0 -14672 24166 0 0 14672z"/>
   <path class="fil0" d="M18987 20713l-12083 0c-238,0 -432,193 -432,432l0 1295 -863 0 0 863 14672 0 0 -863 -863 0 0 -1295c0,-238 -193,-432 -432,-432l0 0zm-8199 863l4315 0 0 863 -4315 0 0 -863zm-863 863l-863 0 0 -863 863 0 0 863zm6041 -863l863 0 0 863 -863 0 0 -863zm-8631 0l863 0 0 863 -863 0 0 -863zm10357 863l0 -863 863 0 0 863 -863 0z"/>
   <path class="fil0" d="M25081 21019c-471,-471 -1112,-737 -1778,-737 -667,0 -1307,265 -1779,737l-684 684c-81,81 -126,191 -126,305 0,67 16,133 46,193l432 863c73,146 223,239 386,239 0,0 0,0 0,0l3452 0c0,0 0,0 0,0 163,0 313,-92 386,-239l432 -863c30,-60 46,-126 46,-193 0,-114 -46,-224 -126,-305l-684 -684zm-319 1421l-2919 0 -173 -346 464 -464c310,-310 730,-484 1168,-484 438,0 859,174 1168,484l464 464 -173 346z"/>
  </g>
 </g>
</svg>
