<?xml version="1.0" encoding="UTF-8"?>
<!DOCTYPE svg PUBLIC "-//W3C//DTD SVG 1.1//EN" "http://www.w3.org/Graphics/SVG/1.1/DTD/svg11.dtd">
<!-- Creator: CorelDRAW -->
<svg xmlns="http://www.w3.org/2000/svg" xml:space="preserve" width="28.3887mm" height="28.3784mm" version="1.1" style="shape-rendering:geometricPrecision; text-rendering:geometricPrecision; image-rendering:optimizeQuality; fill-rule:evenodd; clip-rule:evenodd"
viewBox="0 0 1958 1957"
 xmlns:xlink="http://www.w3.org/1999/xlink"
 xmlns:xodm="http://www.corel.com/coreldraw/odm/2003">
 <defs>
  <style type="text/css">
   <![CDATA[
    .fil0 {fill:#EE4957}
   ]]>
  </style>
 </defs>
 <g id="Слой_x0020_1">
  <metadata id="CorelCorpID_0Corel-Layer"/>
  <path class="fil0" d="M853 461c666,-177 949,852 260,1035 -672,179 -966,-847 -260,-1035zm30 216c-411,135 -204,739 200,606 385,-127 209,-739 -200,-606zm656 -396c126,-83 219,109 112,174 -76,46 -185,-11 -161,-115 12,-51 27,-44 49,-59zm-1185 -261c-369,79 -345,403 -345,632 0,217 -27,784 10,961 27,129 120,230 205,279 129,75 267,58 427,58 210,0 793,26 961,-10 359,-79 337,-415 337,-631 0,-217 27,-784 -10,-961 -27,-128 -121,-231 -204,-280 -125,-72 -270,-57 -427,-57 -212,0 -784,-26 -952,10z"/>
 </g>
</svg>
