<?xml version="1.0" encoding="UTF-8"?>
<!DOCTYPE svg PUBLIC "-//W3C//DTD SVG 1.1//EN" "http://www.w3.org/Graphics/SVG/1.1/DTD/svg11.dtd">
<!-- Creator: CorelDRAW -->
<svg xmlns="http://www.w3.org/2000/svg" xml:space="preserve" width="17.9998mm" height="30mm" version="1.1" style="shape-rendering:geometricPrecision; text-rendering:geometricPrecision; image-rendering:optimizeQuality; fill-rule:evenodd; clip-rule:evenodd"
viewBox="0 0 1205 2008"
 xmlns:xlink="http://www.w3.org/1999/xlink"
 xmlns:xodm="http://www.corel.com/coreldraw/odm/2003">
 <defs>
  <style type="text/css">
   <![CDATA[
    .fil0 {fill:#370E0C;fill-rule:nonzero}
   ]]>
  </style>
 </defs>
 <g id="Слой_x0020_1">
  <metadata id="CorelCorpID_0Corel-Layer"/>
  <path class="fil0" d="M1145 60c-40,-40 -87,-60 -141,-60l-803 0c-54,0 -101,20 -141,60 -40,40 -60,87 -60,141l0 1607c0,54 20,101 60,141 40,40 87,60 141,60l803 0c54,0 101,-20 141,-60 40,-40 60,-87 60,-141l0 -1607c0,-54 -20,-101 -60,-141zm-668 141l251 0c17,0 25,8 25,25 0,17 -8,25 -25,25l-251 0c-17,0 -25,-8 -25,-25 0,-17 8,-25 25,-25zm214 1695c-25,25 -54,37 -89,37 -35,0 -64,-12 -89,-37 -25,-25 -37,-54 -37,-89 0,-35 12,-64 37,-89 25,-25 54,-37 89,-37 35,0 64,12 89,37 25,25 37,54 37,89 0,35 -12,64 -37,89zm363 -340c0,14 -5,25 -15,35 -10,10 -22,15 -35,15l-803 0c-14,0 -25,-5 -35,-15 -10,-10 -15,-22 -15,-35l0 -1105c0,-14 5,-25 15,-35 10,-10 22,-15 35,-15l803 0c14,0 25,5 35,15 10,10 15,22 15,35l0 1105 0 0 0 0z"/>
 </g>
</svg>
